<mxfile host="65bd71144e">
    <diagram id="fYaxsP0ltpuCHzSQxzqy" name="Page-1">
        <mxGraphModel dx="1475" dy="528" grid="1" gridSize="10" guides="1" tooltips="1" connect="1" arrows="1" fold="1" page="1" pageScale="1" pageWidth="850" pageHeight="1100" math="0" shadow="0">
            <root>
                <mxCell id="0"/>
                <mxCell id="1" parent="0"/>
                <mxCell id="6" value="" style="endArrow=classic;html=1;" parent="1" source="11" target="42" edge="1">
                    <mxGeometry width="50" height="50" relative="1" as="geometry">
                        <mxPoint x="190" y="249" as="sourcePoint"/>
                        <mxPoint x="235.4545454545455" y="580" as="targetPoint"/>
                    </mxGeometry>
                </mxCell>
                <mxCell id="7" value="" style="endArrow=classic;html=1;" parent="1" source="11" target="2" edge="1">
                    <mxGeometry width="50" height="50" relative="1" as="geometry">
                        <mxPoint x="50" y="220" as="sourcePoint"/>
                        <mxPoint x="390" y="360" as="targetPoint"/>
                    </mxGeometry>
                </mxCell>
                <mxCell id="8" value="" style="endArrow=classic;html=1;" parent="1" source="42" target="43" edge="1">
                    <mxGeometry width="50" height="50" relative="1" as="geometry">
                        <mxPoint x="310" y="592.2857142857142" as="sourcePoint"/>
                        <mxPoint x="425" y="520" as="targetPoint"/>
                    </mxGeometry>
                </mxCell>
                <mxCell id="11" value="&lt;meta charset=&quot;utf-8&quot; style=&quot;font-size: 9px;&quot;&gt;&lt;div style=&quot;color: rgb(212, 212, 212); background-color: rgb(30, 30, 30); font-family: menlo, monaco, &amp;quot;courier new&amp;quot;, monospace; font-weight: normal; font-size: 9px; line-height: 18px;&quot;&gt;&lt;div style=&quot;font-size: 9px;&quot;&gt;&lt;span style=&quot;color: rgb(197, 134, 192); font-size: 9px;&quot;&gt;export&lt;/span&gt;&lt;span style=&quot;color: rgb(212, 212, 212); font-size: 9px;&quot;&gt; &lt;/span&gt;&lt;span style=&quot;color: rgb(86, 156, 214); font-size: 9px;&quot;&gt;type&lt;/span&gt;&lt;span style=&quot;color: rgb(212, 212, 212); font-size: 9px;&quot;&gt; &lt;/span&gt;&lt;span style=&quot;color: rgb(78, 201, 176); font-size: 9px;&quot;&gt;CoinGeckoMarketCap&lt;/span&gt;&lt;span style=&quot;color: rgb(212, 212, 212); font-size: 9px;&quot;&gt; = {&lt;/span&gt;&lt;/div&gt;&lt;div style=&quot;font-size: 9px;&quot;&gt;&lt;span style=&quot;color: rgb(212, 212, 212); font-size: 9px;&quot;&gt;  &lt;/span&gt;&lt;span style=&quot;color: rgb(156, 220, 254); font-size: 9px;&quot;&gt;id&lt;/span&gt;&lt;span style=&quot;color: rgb(212, 212, 212); font-size: 9px;&quot;&gt;: &lt;/span&gt;&lt;span style=&quot;color: rgb(78, 201, 176); font-size: 9px;&quot;&gt;string&lt;/span&gt;&lt;/div&gt;&lt;div style=&quot;font-size: 9px;&quot;&gt;&lt;span style=&quot;color: rgb(212, 212, 212); font-size: 9px;&quot;&gt;  &lt;/span&gt;&lt;span style=&quot;color: rgb(156, 220, 254); font-size: 9px;&quot;&gt;symbol&lt;/span&gt;&lt;span style=&quot;color: rgb(212, 212, 212); font-size: 9px;&quot;&gt;: &lt;/span&gt;&lt;span style=&quot;color: rgb(78, 201, 176); font-size: 9px;&quot;&gt;string&lt;/span&gt;&lt;/div&gt;&lt;div style=&quot;font-size: 9px;&quot;&gt;&lt;span style=&quot;color: rgb(212, 212, 212); font-size: 9px;&quot;&gt;  &lt;/span&gt;&lt;span style=&quot;color: rgb(156, 220, 254); font-size: 9px;&quot;&gt;name&lt;/span&gt;&lt;span style=&quot;color: rgb(212, 212, 212); font-size: 9px;&quot;&gt;: &lt;/span&gt;&lt;span style=&quot;color: rgb(78, 201, 176); font-size: 9px;&quot;&gt;string&lt;/span&gt;&lt;/div&gt;&lt;div style=&quot;font-size: 9px;&quot;&gt;&lt;span style=&quot;color: rgb(212, 212, 212); font-size: 9px;&quot;&gt;  &lt;/span&gt;&lt;span style=&quot;color: rgb(156, 220, 254); font-size: 9px;&quot;&gt;image&lt;/span&gt;&lt;span style=&quot;color: rgb(212, 212, 212); font-size: 9px;&quot;&gt;: &lt;/span&gt;&lt;span style=&quot;color: rgb(78, 201, 176); font-size: 9px;&quot;&gt;string&lt;/span&gt;&lt;/div&gt;&lt;div style=&quot;font-size: 9px;&quot;&gt;&lt;span style=&quot;color: rgb(212, 212, 212); font-size: 9px;&quot;&gt;  &lt;/span&gt;&lt;span style=&quot;color: rgb(156, 220, 254); font-size: 9px;&quot;&gt;current_price&lt;/span&gt;&lt;span style=&quot;color: rgb(212, 212, 212); font-size: 9px;&quot;&gt;: &lt;/span&gt;&lt;span style=&quot;color: rgb(78, 201, 176); font-size: 9px;&quot;&gt;number&lt;/span&gt;&lt;/div&gt;&lt;div style=&quot;font-size: 9px;&quot;&gt;&lt;span style=&quot;color: rgb(212, 212, 212); font-size: 9px;&quot;&gt;  &lt;/span&gt;&lt;span style=&quot;color: rgb(156, 220, 254); font-size: 9px;&quot;&gt;market_cap&lt;/span&gt;&lt;span style=&quot;color: rgb(212, 212, 212); font-size: 9px;&quot;&gt;: &lt;/span&gt;&lt;span style=&quot;color: rgb(78, 201, 176); font-size: 9px;&quot;&gt;number&lt;/span&gt;&lt;/div&gt;&lt;div style=&quot;font-size: 9px;&quot;&gt;&lt;span style=&quot;color: rgb(212, 212, 212); font-size: 9px;&quot;&gt;  &lt;/span&gt;&lt;span style=&quot;color: rgb(156, 220, 254); font-size: 9px;&quot;&gt;market_cap_rank&lt;/span&gt;&lt;span style=&quot;color: rgb(212, 212, 212); font-size: 9px;&quot;&gt;: &lt;/span&gt;&lt;span style=&quot;color: rgb(78, 201, 176); font-size: 9px;&quot;&gt;number&lt;/span&gt;&lt;/div&gt;&lt;div style=&quot;font-size: 9px;&quot;&gt;&lt;span style=&quot;color: rgb(212, 212, 212); font-size: 9px;&quot;&gt;  &lt;/span&gt;&lt;span style=&quot;color: rgb(156, 220, 254); font-size: 9px;&quot;&gt;fully_diluted_valuation&lt;/span&gt;&lt;span style=&quot;color: rgb(212, 212, 212); font-size: 9px;&quot;&gt;: &lt;/span&gt;&lt;span style=&quot;color: rgb(78, 201, 176); font-size: 9px;&quot;&gt;number&lt;/span&gt;&lt;span style=&quot;color: rgb(212, 212, 212); font-size: 9px;&quot;&gt; | &lt;/span&gt;&lt;span style=&quot;color: rgb(78, 201, 176); font-size: 9px;&quot;&gt;null&lt;/span&gt;&lt;/div&gt;&lt;div style=&quot;font-size: 9px;&quot;&gt;&lt;span style=&quot;color: rgb(212, 212, 212); font-size: 9px;&quot;&gt;  &lt;/span&gt;&lt;span style=&quot;color: rgb(156, 220, 254); font-size: 9px;&quot;&gt;total_volume&lt;/span&gt;&lt;span style=&quot;color: rgb(212, 212, 212); font-size: 9px;&quot;&gt;: &lt;/span&gt;&lt;span style=&quot;color: rgb(78, 201, 176); font-size: 9px;&quot;&gt;number&lt;/span&gt;&lt;/div&gt;&lt;div style=&quot;font-size: 9px;&quot;&gt;&lt;span style=&quot;color: rgb(212, 212, 212); font-size: 9px;&quot;&gt;  &lt;/span&gt;&lt;span style=&quot;color: rgb(156, 220, 254); font-size: 9px;&quot;&gt;high_24h&lt;/span&gt;&lt;span style=&quot;color: rgb(212, 212, 212); font-size: 9px;&quot;&gt;: &lt;/span&gt;&lt;span style=&quot;color: rgb(78, 201, 176); font-size: 9px;&quot;&gt;number&lt;/span&gt;&lt;/div&gt;&lt;div style=&quot;font-size: 9px;&quot;&gt;&lt;span style=&quot;color: rgb(212, 212, 212); font-size: 9px;&quot;&gt;  &lt;/span&gt;&lt;span style=&quot;color: rgb(156, 220, 254); font-size: 9px;&quot;&gt;low_24h&lt;/span&gt;&lt;span style=&quot;color: rgb(212, 212, 212); font-size: 9px;&quot;&gt;: &lt;/span&gt;&lt;span style=&quot;color: rgb(78, 201, 176); font-size: 9px;&quot;&gt;number&lt;/span&gt;&lt;/div&gt;&lt;div style=&quot;font-size: 9px;&quot;&gt;&lt;span style=&quot;color: rgb(212, 212, 212); font-size: 9px;&quot;&gt;  &lt;/span&gt;&lt;span style=&quot;color: rgb(156, 220, 254); font-size: 9px;&quot;&gt;price_change_24h&lt;/span&gt;&lt;span style=&quot;color: rgb(212, 212, 212); font-size: 9px;&quot;&gt;: &lt;/span&gt;&lt;span style=&quot;color: rgb(78, 201, 176); font-size: 9px;&quot;&gt;number&lt;/span&gt;&lt;/div&gt;&lt;div style=&quot;font-size: 9px;&quot;&gt;&lt;span style=&quot;color: rgb(212, 212, 212); font-size: 9px;&quot;&gt;  &lt;/span&gt;&lt;span style=&quot;color: rgb(156, 220, 254); font-size: 9px;&quot;&gt;price_change_percentage_24h&lt;/span&gt;&lt;span style=&quot;color: rgb(212, 212, 212); font-size: 9px;&quot;&gt;: &lt;/span&gt;&lt;span style=&quot;color: rgb(78, 201, 176); font-size: 9px;&quot;&gt;number&lt;/span&gt;&lt;/div&gt;&lt;div style=&quot;font-size: 9px;&quot;&gt;&lt;span style=&quot;color: rgb(212, 212, 212); font-size: 9px;&quot;&gt;  &lt;/span&gt;&lt;span style=&quot;color: rgb(156, 220, 254); font-size: 9px;&quot;&gt;market_cap_change_24h&lt;/span&gt;&lt;span style=&quot;color: rgb(212, 212, 212); font-size: 9px;&quot;&gt;: &lt;/span&gt;&lt;span style=&quot;color: rgb(78, 201, 176); font-size: 9px;&quot;&gt;number&lt;/span&gt;&lt;/div&gt;&lt;div style=&quot;font-size: 9px;&quot;&gt;&lt;span style=&quot;color: rgb(212, 212, 212); font-size: 9px;&quot;&gt;  &lt;/span&gt;&lt;span style=&quot;color: rgb(156, 220, 254); font-size: 9px;&quot;&gt;market_cap_change_percentage_24h&lt;/span&gt;&lt;span style=&quot;color: rgb(212, 212, 212); font-size: 9px;&quot;&gt;: &lt;/span&gt;&lt;span style=&quot;color: rgb(78, 201, 176); font-size: 9px;&quot;&gt;number&lt;/span&gt;&lt;/div&gt;&lt;div style=&quot;font-size: 9px;&quot;&gt;&lt;span style=&quot;color: rgb(212, 212, 212); font-size: 9px;&quot;&gt;  &lt;/span&gt;&lt;span style=&quot;color: rgb(156, 220, 254); font-size: 9px;&quot;&gt;circulating_supply&lt;/span&gt;&lt;span style=&quot;color: rgb(212, 212, 212); font-size: 9px;&quot;&gt;: &lt;/span&gt;&lt;span style=&quot;color: rgb(78, 201, 176); font-size: 9px;&quot;&gt;number&lt;/span&gt;&lt;/div&gt;&lt;div style=&quot;font-size: 9px;&quot;&gt;&lt;span style=&quot;color: rgb(212, 212, 212); font-size: 9px;&quot;&gt;  &lt;/span&gt;&lt;span style=&quot;color: rgb(156, 220, 254); font-size: 9px;&quot;&gt;total_supply&lt;/span&gt;&lt;span style=&quot;color: rgb(212, 212, 212); font-size: 9px;&quot;&gt;: &lt;/span&gt;&lt;span style=&quot;color: rgb(78, 201, 176); font-size: 9px;&quot;&gt;number&lt;/span&gt;&lt;span style=&quot;color: rgb(212, 212, 212); font-size: 9px;&quot;&gt; | &lt;/span&gt;&lt;span style=&quot;color: rgb(78, 201, 176); font-size: 9px;&quot;&gt;null&lt;/span&gt;&lt;/div&gt;&lt;div style=&quot;font-size: 9px;&quot;&gt;&lt;span style=&quot;color: rgb(212, 212, 212); font-size: 9px;&quot;&gt;  &lt;/span&gt;&lt;span style=&quot;color: rgb(156, 220, 254); font-size: 9px;&quot;&gt;max_supply&lt;/span&gt;&lt;span style=&quot;color: rgb(212, 212, 212); font-size: 9px;&quot;&gt;: &lt;/span&gt;&lt;span style=&quot;color: rgb(78, 201, 176); font-size: 9px;&quot;&gt;number&lt;/span&gt;&lt;span style=&quot;color: rgb(212, 212, 212); font-size: 9px;&quot;&gt; | &lt;/span&gt;&lt;span style=&quot;color: rgb(78, 201, 176); font-size: 9px;&quot;&gt;null&lt;/span&gt;&lt;/div&gt;&lt;div style=&quot;font-size: 9px;&quot;&gt;&lt;span style=&quot;color: rgb(212, 212, 212); font-size: 9px;&quot;&gt;  &lt;/span&gt;&lt;span style=&quot;color: rgb(156, 220, 254); font-size: 9px;&quot;&gt;ath&lt;/span&gt;&lt;span style=&quot;color: rgb(212, 212, 212); font-size: 9px;&quot;&gt;: &lt;/span&gt;&lt;span style=&quot;color: rgb(78, 201, 176); font-size: 9px;&quot;&gt;number&lt;/span&gt;&lt;/div&gt;&lt;div style=&quot;font-size: 9px;&quot;&gt;&lt;span style=&quot;color: rgb(212, 212, 212); font-size: 9px;&quot;&gt;  &lt;/span&gt;&lt;span style=&quot;color: rgb(156, 220, 254); font-size: 9px;&quot;&gt;ath_change_percentage&lt;/span&gt;&lt;span style=&quot;color: rgb(212, 212, 212); font-size: 9px;&quot;&gt;: &lt;/span&gt;&lt;span style=&quot;color: rgb(78, 201, 176); font-size: 9px;&quot;&gt;number&lt;/span&gt;&lt;/div&gt;&lt;div style=&quot;font-size: 9px;&quot;&gt;&lt;span style=&quot;color: rgb(212, 212, 212); font-size: 9px;&quot;&gt;  &lt;/span&gt;&lt;span style=&quot;color: rgb(156, 220, 254); font-size: 9px;&quot;&gt;ath_date&lt;/span&gt;&lt;span style=&quot;color: rgb(212, 212, 212); font-size: 9px;&quot;&gt;: &lt;/span&gt;&lt;span style=&quot;color: rgb(78, 201, 176); font-size: 9px;&quot;&gt;string&lt;/span&gt;&lt;/div&gt;&lt;div style=&quot;font-size: 9px;&quot;&gt;&lt;span style=&quot;color: rgb(212, 212, 212); font-size: 9px;&quot;&gt;  &lt;/span&gt;&lt;span style=&quot;color: rgb(156, 220, 254); font-size: 9px;&quot;&gt;atl&lt;/span&gt;&lt;span style=&quot;color: rgb(212, 212, 212); font-size: 9px;&quot;&gt;: &lt;/span&gt;&lt;span style=&quot;color: rgb(78, 201, 176); font-size: 9px;&quot;&gt;number&lt;/span&gt;&lt;/div&gt;&lt;div style=&quot;font-size: 9px;&quot;&gt;&lt;span style=&quot;color: rgb(212, 212, 212); font-size: 9px;&quot;&gt;  &lt;/span&gt;&lt;span style=&quot;color: rgb(156, 220, 254); font-size: 9px;&quot;&gt;atl_change_percentage&lt;/span&gt;&lt;span style=&quot;color: rgb(212, 212, 212); font-size: 9px;&quot;&gt;: &lt;/span&gt;&lt;span style=&quot;color: rgb(78, 201, 176); font-size: 9px;&quot;&gt;number&lt;/span&gt;&lt;/div&gt;&lt;div style=&quot;font-size: 9px;&quot;&gt;&lt;span style=&quot;color: rgb(212, 212, 212); font-size: 9px;&quot;&gt;  &lt;/span&gt;&lt;span style=&quot;color: rgb(156, 220, 254); font-size: 9px;&quot;&gt;atl_date&lt;/span&gt;&lt;span style=&quot;color: rgb(212, 212, 212); font-size: 9px;&quot;&gt;: &lt;/span&gt;&lt;span style=&quot;color: rgb(78, 201, 176); font-size: 9px;&quot;&gt;string&lt;/span&gt;&lt;/div&gt;&lt;div style=&quot;font-size: 9px;&quot;&gt;&lt;span style=&quot;color: rgb(212, 212, 212); font-size: 9px;&quot;&gt;  &lt;/span&gt;&lt;span style=&quot;color: rgb(156, 220, 254); font-size: 9px;&quot;&gt;roi&lt;/span&gt;&lt;span style=&quot;color: rgb(212, 212, 212); font-size: 9px;&quot;&gt;: &lt;/span&gt;&lt;span style=&quot;color: rgb(78, 201, 176); font-size: 9px;&quot;&gt;null&lt;/span&gt;&lt;span style=&quot;color: rgb(212, 212, 212); font-size: 9px;&quot;&gt; | {&lt;/span&gt;&lt;/div&gt;&lt;div style=&quot;font-size: 9px;&quot;&gt;&lt;span style=&quot;color: rgb(212, 212, 212); font-size: 9px;&quot;&gt;    &lt;/span&gt;&lt;span style=&quot;color: rgb(156, 220, 254); font-size: 9px;&quot;&gt;times&lt;/span&gt;&lt;span style=&quot;color: rgb(212, 212, 212); font-size: 9px;&quot;&gt;: &lt;/span&gt;&lt;span style=&quot;color: rgb(78, 201, 176); font-size: 9px;&quot;&gt;number&lt;/span&gt;&lt;/div&gt;&lt;div style=&quot;font-size: 9px;&quot;&gt;&lt;span style=&quot;color: rgb(212, 212, 212); font-size: 9px;&quot;&gt;    &lt;/span&gt;&lt;span style=&quot;color: rgb(156, 220, 254); font-size: 9px;&quot;&gt;currency&lt;/span&gt;&lt;span style=&quot;color: rgb(212, 212, 212); font-size: 9px;&quot;&gt;: &lt;/span&gt;&lt;span style=&quot;color: rgb(78, 201, 176); font-size: 9px;&quot;&gt;string&lt;/span&gt;&lt;/div&gt;&lt;div style=&quot;font-size: 9px;&quot;&gt;&lt;span style=&quot;color: rgb(212, 212, 212); font-size: 9px;&quot;&gt;    &lt;/span&gt;&lt;span style=&quot;color: rgb(156, 220, 254); font-size: 9px;&quot;&gt;percentage&lt;/span&gt;&lt;span style=&quot;color: rgb(212, 212, 212); font-size: 9px;&quot;&gt;: &lt;/span&gt;&lt;span style=&quot;color: rgb(78, 201, 176); font-size: 9px;&quot;&gt;number&lt;/span&gt;&lt;/div&gt;&lt;div style=&quot;font-size: 9px;&quot;&gt;&lt;span style=&quot;color: rgb(212, 212, 212); font-size: 9px;&quot;&gt;  }&lt;/span&gt;&lt;/div&gt;&lt;div style=&quot;font-size: 9px;&quot;&gt;&lt;span style=&quot;color: rgb(212, 212, 212); font-size: 9px;&quot;&gt;  &lt;/span&gt;&lt;span style=&quot;color: rgb(156, 220, 254); font-size: 9px;&quot;&gt;last_updated&lt;/span&gt;&lt;span style=&quot;color: rgb(212, 212, 212); font-size: 9px;&quot;&gt;: &lt;/span&gt;&lt;span style=&quot;color: rgb(78, 201, 176); font-size: 9px;&quot;&gt;string&lt;/span&gt;&lt;/div&gt;&lt;div style=&quot;font-size: 9px;&quot;&gt;&lt;span style=&quot;color: rgb(212, 212, 212); font-size: 9px;&quot;&gt;}&lt;/span&gt;&lt;/div&gt;&lt;/div&gt;" style="text;whiteSpace=wrap;html=1;fontSize=9;spacingTop=-5;" parent="1" vertex="1">
                    <mxGeometry x="-50" y="220" width="220" height="540" as="geometry"/>
                </mxCell>
                <mxCell id="15" value="" style="endArrow=classic;html=1;fontSize=12;entryX=0.5;entryY=0;entryDx=0;entryDy=0;entryPerimeter=0;" parent="1" source="42" target="13" edge="1">
                    <mxGeometry width="50" height="50" relative="1" as="geometry">
                        <mxPoint x="250" y="680" as="sourcePoint"/>
                        <mxPoint x="210" y="640" as="targetPoint"/>
                    </mxGeometry>
                </mxCell>
                <mxCell id="18" value="&lt;meta charset=&quot;utf-8&quot; style=&quot;font-size: 10px;&quot;&gt;&lt;div style=&quot;color: rgb(212, 212, 212); background-color: rgb(30, 30, 30); font-family: menlo, monaco, &amp;quot;courier new&amp;quot;, monospace; font-weight: normal; font-size: 10px; line-height: 18px;&quot;&gt;&lt;div style=&quot;font-size: 10px;&quot;&gt;&lt;span style=&quot;color: rgb(86, 156, 214); font-size: 10px;&quot;&gt;type&lt;/span&gt;&lt;span style=&quot;color: rgb(212, 212, 212); font-size: 10px;&quot;&gt; &lt;/span&gt;&lt;span style=&quot;color: rgb(78, 201, 176); font-size: 10px;&quot;&gt;CoinCapMarketAsset&lt;/span&gt;&lt;span style=&quot;color: rgb(212, 212, 212); font-size: 10px;&quot;&gt; = {&lt;/span&gt;&lt;/div&gt;&lt;div style=&quot;font-size: 10px;&quot;&gt;&lt;span style=&quot;color: rgb(212, 212, 212); font-size: 10px;&quot;&gt;  &lt;/span&gt;&lt;span style=&quot;color: rgb(156, 220, 254); font-size: 10px;&quot;&gt;id&lt;/span&gt;&lt;span style=&quot;color: rgb(212, 212, 212); font-size: 10px;&quot;&gt;: &lt;/span&gt;&lt;span style=&quot;color: rgb(78, 201, 176); font-size: 10px;&quot;&gt;string&lt;/span&gt;&lt;/div&gt;&lt;div style=&quot;font-size: 10px;&quot;&gt;&lt;span style=&quot;color: rgb(212, 212, 212); font-size: 10px;&quot;&gt;  &lt;/span&gt;&lt;span style=&quot;color: rgb(156, 220, 254); font-size: 10px;&quot;&gt;rank&lt;/span&gt;&lt;span style=&quot;color: rgb(212, 212, 212); font-size: 10px;&quot;&gt;: &lt;/span&gt;&lt;span style=&quot;color: rgb(78, 201, 176); font-size: 10px;&quot;&gt;string&lt;/span&gt;&lt;/div&gt;&lt;div style=&quot;font-size: 10px;&quot;&gt;&lt;span style=&quot;color: rgb(212, 212, 212); font-size: 10px;&quot;&gt;  &lt;/span&gt;&lt;span style=&quot;color: rgb(156, 220, 254); font-size: 10px;&quot;&gt;symbol&lt;/span&gt;&lt;span style=&quot;color: rgb(212, 212, 212); font-size: 10px;&quot;&gt;: &lt;/span&gt;&lt;span style=&quot;color: rgb(78, 201, 176); font-size: 10px;&quot;&gt;string&lt;/span&gt;&lt;/div&gt;&lt;div style=&quot;font-size: 10px;&quot;&gt;&lt;span style=&quot;color: rgb(212, 212, 212); font-size: 10px;&quot;&gt;  &lt;/span&gt;&lt;span style=&quot;color: rgb(156, 220, 254); font-size: 10px;&quot;&gt;name&lt;/span&gt;&lt;span style=&quot;color: rgb(212, 212, 212); font-size: 10px;&quot;&gt;: &lt;/span&gt;&lt;span style=&quot;color: rgb(78, 201, 176); font-size: 10px;&quot;&gt;string&lt;/span&gt;&lt;/div&gt;&lt;div style=&quot;font-size: 10px;&quot;&gt;&lt;span style=&quot;color: rgb(212, 212, 212); font-size: 10px;&quot;&gt;  &lt;/span&gt;&lt;span style=&quot;color: rgb(156, 220, 254); font-size: 10px;&quot;&gt;supply&lt;/span&gt;&lt;span style=&quot;color: rgb(212, 212, 212); font-size: 10px;&quot;&gt;: &lt;/span&gt;&lt;span style=&quot;color: rgb(78, 201, 176); font-size: 10px;&quot;&gt;string&lt;/span&gt;&lt;/div&gt;&lt;div style=&quot;font-size: 10px;&quot;&gt;&lt;span style=&quot;color: rgb(212, 212, 212); font-size: 10px;&quot;&gt;  &lt;/span&gt;&lt;span style=&quot;color: rgb(156, 220, 254); font-size: 10px;&quot;&gt;maxSupply&lt;/span&gt;&lt;span style=&quot;color: rgb(212, 212, 212); font-size: 10px;&quot;&gt;: &lt;/span&gt;&lt;span style=&quot;color: rgb(78, 201, 176); font-size: 10px;&quot;&gt;string&lt;/span&gt;&lt;/div&gt;&lt;div style=&quot;font-size: 10px;&quot;&gt;&lt;span style=&quot;color: rgb(212, 212, 212); font-size: 10px;&quot;&gt;  &lt;/span&gt;&lt;span style=&quot;color: rgb(156, 220, 254); font-size: 10px;&quot;&gt;marketCapUsd&lt;/span&gt;&lt;span style=&quot;color: rgb(212, 212, 212); font-size: 10px;&quot;&gt;: &lt;/span&gt;&lt;span style=&quot;color: rgb(78, 201, 176); font-size: 10px;&quot;&gt;string&lt;/span&gt;&lt;/div&gt;&lt;div style=&quot;font-size: 10px;&quot;&gt;&lt;span style=&quot;color: rgb(212, 212, 212); font-size: 10px;&quot;&gt;  &lt;/span&gt;&lt;span style=&quot;color: rgb(156, 220, 254); font-size: 10px;&quot;&gt;volumeUsd24Hr&lt;/span&gt;&lt;span style=&quot;color: rgb(212, 212, 212); font-size: 10px;&quot;&gt;: &lt;/span&gt;&lt;span style=&quot;color: rgb(78, 201, 176); font-size: 10px;&quot;&gt;string&lt;/span&gt;&lt;/div&gt;&lt;div style=&quot;font-size: 10px;&quot;&gt;&lt;span style=&quot;color: rgb(212, 212, 212); font-size: 10px;&quot;&gt;  &lt;/span&gt;&lt;span style=&quot;color: rgb(156, 220, 254); font-size: 10px;&quot;&gt;priceUsd&lt;/span&gt;&lt;span style=&quot;color: rgb(212, 212, 212); font-size: 10px;&quot;&gt;: &lt;/span&gt;&lt;span style=&quot;color: rgb(78, 201, 176); font-size: 10px;&quot;&gt;string&lt;/span&gt;&lt;/div&gt;&lt;div style=&quot;font-size: 10px;&quot;&gt;&lt;span style=&quot;color: rgb(212, 212, 212); font-size: 10px;&quot;&gt;  &lt;/span&gt;&lt;span style=&quot;color: rgb(156, 220, 254); font-size: 10px;&quot;&gt;changePercent24Hr&lt;/span&gt;&lt;span style=&quot;color: rgb(212, 212, 212); font-size: 10px;&quot;&gt;: &lt;/span&gt;&lt;span style=&quot;color: rgb(78, 201, 176); font-size: 10px;&quot;&gt;string&lt;/span&gt;&lt;/div&gt;&lt;div style=&quot;font-size: 10px;&quot;&gt;&lt;span style=&quot;color: rgb(212, 212, 212); font-size: 10px;&quot;&gt;  &lt;/span&gt;&lt;span style=&quot;color: rgb(156, 220, 254); font-size: 10px;&quot;&gt;vwap24Hr&lt;/span&gt;&lt;span style=&quot;color: rgb(212, 212, 212); font-size: 10px;&quot;&gt;: &lt;/span&gt;&lt;span style=&quot;color: rgb(78, 201, 176); font-size: 10px;&quot;&gt;string&lt;/span&gt;&lt;/div&gt;&lt;div style=&quot;font-size: 10px;&quot;&gt;&lt;span style=&quot;color: rgb(212, 212, 212); font-size: 10px;&quot;&gt;  &lt;/span&gt;&lt;span style=&quot;color: rgb(156, 220, 254); font-size: 10px;&quot;&gt;explorer&lt;/span&gt;&lt;span style=&quot;color: rgb(212, 212, 212); font-size: 10px;&quot;&gt;: &lt;/span&gt;&lt;span style=&quot;color: rgb(78, 201, 176); font-size: 10px;&quot;&gt;string&lt;/span&gt;&lt;/div&gt;&lt;div style=&quot;font-size: 10px;&quot;&gt;&lt;span style=&quot;color: rgb(212, 212, 212); font-size: 10px;&quot;&gt;}&lt;/span&gt;&lt;/div&gt;&lt;/div&gt;" style="text;whiteSpace=wrap;html=1;fontSize=10;spacingTop=-5;spacingRight=-5;" parent="1" vertex="1">
                    <mxGeometry x="220" y="170" width="161.75" height="250" as="geometry"/>
                </mxCell>
                <mxCell id="19" value="" style="endArrow=classic;html=1;exitX=0.5;exitY=0;exitDx=0;exitDy=0;entryX=0.55;entryY=0.95;entryDx=0;entryDy=0;entryPerimeter=0;" parent="1" source="18" target="16" edge="1">
                    <mxGeometry width="50" height="50" relative="1" as="geometry">
                        <mxPoint x="400" y="213" as="sourcePoint"/>
                        <mxPoint x="436.9100000000001" y="130" as="targetPoint"/>
                    </mxGeometry>
                </mxCell>
                <mxCell id="21" value="" style="endArrow=classic;html=1;" parent="1" source="18" target="42" edge="1">
                    <mxGeometry width="50" height="50" relative="1" as="geometry">
                        <mxPoint x="320" y="440" as="sourcePoint"/>
                        <mxPoint x="250" y="580" as="targetPoint"/>
                    </mxGeometry>
                </mxCell>
                <mxCell id="25" value="" style="endArrow=classic;html=1;" parent="1" source="26" target="23" edge="1">
                    <mxGeometry width="50" height="50" relative="1" as="geometry">
                        <mxPoint x="563.0625" y="150" as="sourcePoint"/>
                        <mxPoint x="658.6600000000001" y="130" as="targetPoint"/>
                    </mxGeometry>
                </mxCell>
                <mxCell id="26" value="&lt;meta charset=&quot;utf-8&quot; style=&quot;font-size: 9px;&quot;&gt;&lt;div style=&quot;color: rgb(212, 212, 212); background-color: rgb(30, 30, 30); font-family: menlo, monaco, &amp;quot;courier new&amp;quot;, monospace; font-weight: normal; font-size: 9px; line-height: 18px;&quot;&gt;&lt;div style=&quot;font-size: 9px;&quot;&gt;&lt;span style=&quot;color: rgb(86, 156, 214); font-size: 9px;&quot;&gt;type&lt;/span&gt;&lt;span style=&quot;color: rgb(212, 212, 212); font-size: 9px;&quot;&gt; &lt;/span&gt;&lt;span style=&quot;color: rgb(78, 201, 176); font-size: 9px;&quot;&gt;AnyMarkeServiceResponse&lt;/span&gt;&lt;span style=&quot;color: rgb(212, 212, 212); font-size: 9px;&quot;&gt; = &lt;/span&gt;&lt;span style=&quot;color: rgb(78, 201, 176); font-size: 9px;&quot;&gt;any&lt;/span&gt;&lt;/div&gt;&lt;/div&gt;" style="text;whiteSpace=wrap;html=1;fontSize=9;spacingTop=-5;" parent="1" vertex="1">
                    <mxGeometry x="450" y="260" width="190" height="20" as="geometry"/>
                </mxCell>
                <mxCell id="27" value="" style="endArrow=classic;html=1;" parent="1" source="26" target="42" edge="1">
                    <mxGeometry width="50" height="50" relative="1" as="geometry">
                        <mxPoint x="549.9975" y="300" as="sourcePoint"/>
                        <mxPoint x="285.35714285714266" y="580" as="targetPoint"/>
                    </mxGeometry>
                </mxCell>
                <mxCell id="35" value="" style="endArrow=classic;startArrow=classic;html=1;" parent="1" source="34" target="13" edge="1">
                    <mxGeometry width="50" height="50" relative="1" as="geometry">
                        <mxPoint x="280" y="830" as="sourcePoint"/>
                        <mxPoint x="330" y="780" as="targetPoint"/>
                    </mxGeometry>
                </mxCell>
                <mxCell id="37" value="" style="group" parent="1" vertex="1" connectable="0">
                    <mxGeometry x="519.5" y="800" width="54" height="110" as="geometry"/>
                </mxCell>
                <mxCell id="34" value="" style="outlineConnect=0;fontColor=#232F3E;gradientColor=none;fillColor=#6CAE3E;strokeColor=none;dashed=0;verticalLabelPosition=bottom;verticalAlign=top;align=center;html=1;fontSize=12;fontStyle=0;aspect=fixed;pointerEvents=1;shape=mxgraph.aws4.iot_analytics_data_store;" parent="37" vertex="1">
                    <mxGeometry width="54" height="78" as="geometry"/>
                </mxCell>
                <mxCell id="36" value="Redux Store" style="text;html=1;strokeColor=none;fillColor=none;align=center;verticalAlign=middle;whiteSpace=wrap;rounded=0;" parent="37" vertex="1">
                    <mxGeometry x="7" y="90" width="40" height="20" as="geometry"/>
                </mxCell>
                <mxCell id="39" value="" style="group" parent="1" vertex="1" connectable="0">
                    <mxGeometry x="256.62" y="820" width="116.75" height="90" as="geometry"/>
                </mxCell>
                <mxCell id="13" value="" style="verticalLabelPosition=bottom;html=1;verticalAlign=top;align=center;strokeColor=none;fillColor=#00BEF2;shape=mxgraph.azure.laptop;pointerEvents=1;fontSize=9;" parent="39" vertex="1">
                    <mxGeometry width="116.75" height="90" as="geometry"/>
                </mxCell>
                <mxCell id="14" value="Web" style="text;html=1;strokeColor=none;fillColor=none;align=center;verticalAlign=middle;whiteSpace=wrap;rounded=0;fontSize=12;" parent="39" vertex="1">
                    <mxGeometry x="38.379999999999995" y="30" width="40" height="20" as="geometry"/>
                </mxCell>
                <mxCell id="41" value="websockets?" style="text;html=1;strokeColor=none;fillColor=none;align=center;verticalAlign=middle;whiteSpace=wrap;rounded=0;" parent="1" vertex="1">
                    <mxGeometry x="370" y="130" width="40" height="20" as="geometry"/>
                </mxCell>
                <mxCell id="42" value="findAll" style="text;html=1;strokeColor=none;fillColor=none;align=center;verticalAlign=middle;whiteSpace=wrap;rounded=0;" parent="1" vertex="1">
                    <mxGeometry x="270" y="620" width="90" height="20" as="geometry"/>
                </mxCell>
                <mxCell id="44" value="" style="group" vertex="1" connectable="0" parent="1">
                    <mxGeometry x="-80" y="20" width="190" height="120" as="geometry"/>
                </mxCell>
                <mxCell id="2" value="" style="ellipse;shape=cloud;whiteSpace=wrap;html=1;" parent="44" vertex="1">
                    <mxGeometry width="190" height="120" as="geometry"/>
                </mxCell>
                <mxCell id="3" value="CoinGecko" style="text;html=1;strokeColor=none;fillColor=none;align=center;verticalAlign=middle;whiteSpace=wrap;rounded=0;" parent="44" vertex="1">
                    <mxGeometry x="75" y="50" width="40" height="20" as="geometry"/>
                </mxCell>
                <mxCell id="45" value="" style="group" vertex="1" connectable="0" parent="1">
                    <mxGeometry x="220" y="20" width="190" height="120" as="geometry"/>
                </mxCell>
                <mxCell id="16" value="" style="ellipse;shape=cloud;whiteSpace=wrap;html=1;" parent="45" vertex="1">
                    <mxGeometry width="190" height="120" as="geometry"/>
                </mxCell>
                <mxCell id="17" value="CoinCap" style="text;html=1;strokeColor=none;fillColor=none;align=center;verticalAlign=middle;whiteSpace=wrap;rounded=0;" parent="45" vertex="1">
                    <mxGeometry x="75" y="50" width="40" height="20" as="geometry"/>
                </mxCell>
                <mxCell id="46" value="" style="group" vertex="1" connectable="0" parent="1">
                    <mxGeometry x="510" y="20" width="190" height="120" as="geometry"/>
                </mxCell>
                <mxCell id="23" value="" style="ellipse;shape=cloud;whiteSpace=wrap;html=1;" parent="46" vertex="1">
                    <mxGeometry width="190" height="120" as="geometry"/>
                </mxCell>
                <mxCell id="24" value="Any" style="text;html=1;strokeColor=none;fillColor=none;align=center;verticalAlign=middle;whiteSpace=wrap;rounded=0;" parent="46" vertex="1">
                    <mxGeometry x="75" y="50" width="40" height="20" as="geometry"/>
                </mxCell>
                <mxCell id="47" value="" style="group" vertex="1" connectable="0" parent="1">
                    <mxGeometry x="433" y="480" width="227" height="170" as="geometry"/>
                </mxCell>
                <mxCell id="40" value="MarketData" style="text;html=1;strokeColor=none;fillColor=none;align=center;verticalAlign=middle;whiteSpace=wrap;rounded=0;" parent="47" vertex="1">
                    <mxGeometry x="42" width="155" height="20" as="geometry"/>
                </mxCell>
                <mxCell id="43" value="&lt;meta charset=&quot;utf-8&quot;&gt;&lt;div style=&quot;color: rgb(212, 212, 212); background-color: rgb(30, 30, 30); font-family: menlo, monaco, &amp;quot;courier new&amp;quot;, monospace; font-weight: normal; font-size: 12px; line-height: 18px;&quot;&gt;&lt;div&gt;&lt;span style=&quot;color: #c586c0&quot;&gt;export&lt;/span&gt;&lt;span style=&quot;color: #d4d4d4&quot;&gt; &lt;/span&gt;&lt;span style=&quot;color: #569cd6&quot;&gt;type&lt;/span&gt;&lt;span style=&quot;color: #d4d4d4&quot;&gt; &lt;/span&gt;&lt;span style=&quot;color: #4ec9b0&quot;&gt;MarketCapResult&lt;/span&gt;&lt;span style=&quot;color: #d4d4d4&quot;&gt; = {&lt;/span&gt;&lt;/div&gt;&lt;div&gt;&lt;span style=&quot;color: #d4d4d4&quot;&gt;  [&lt;/span&gt;&lt;span style=&quot;color: #9cdcfe&quot;&gt;k&lt;/span&gt;&lt;span style=&quot;color: #d4d4d4&quot;&gt;: &lt;/span&gt;&lt;span style=&quot;color: #4ec9b0&quot;&gt;caip19&lt;/span&gt;&lt;span style=&quot;color: #d4d4d4&quot;&gt;]: {&lt;/span&gt;&lt;/div&gt;&lt;div&gt;&lt;span style=&quot;color: #d4d4d4&quot;&gt;    &lt;/span&gt;&lt;span style=&quot;color: #9cdcfe&quot;&gt;price&lt;/span&gt;&lt;span style=&quot;color: #d4d4d4&quot;&gt;: &lt;/span&gt;&lt;span style=&quot;color: #4ec9b0&quot;&gt;string&lt;/span&gt;&lt;/div&gt;&lt;div&gt;&lt;span style=&quot;color: #d4d4d4&quot;&gt;    &lt;/span&gt;&lt;span style=&quot;color: #9cdcfe&quot;&gt;marketCap&lt;/span&gt;&lt;span style=&quot;color: #d4d4d4&quot;&gt;: &lt;/span&gt;&lt;span style=&quot;color: #4ec9b0&quot;&gt;string&lt;/span&gt;&lt;/div&gt;&lt;div&gt;&lt;span style=&quot;color: #d4d4d4&quot;&gt;    &lt;/span&gt;&lt;span style=&quot;color: #9cdcfe&quot;&gt;volume&lt;/span&gt;&lt;span style=&quot;color: #d4d4d4&quot;&gt;: &lt;/span&gt;&lt;span style=&quot;color: #4ec9b0&quot;&gt;string&lt;/span&gt;&lt;/div&gt;&lt;div&gt;&lt;span style=&quot;color: #d4d4d4&quot;&gt;    &lt;/span&gt;&lt;span style=&quot;color: #9cdcfe&quot;&gt;changePercent24Hr&lt;/span&gt;&lt;span style=&quot;color: #d4d4d4&quot;&gt;: &lt;/span&gt;&lt;span style=&quot;color: #4ec9b0&quot;&gt;number&lt;/span&gt;&lt;/div&gt;&lt;div&gt;&lt;span style=&quot;color: #d4d4d4&quot;&gt;  }&lt;/span&gt;&lt;/div&gt;&lt;div&gt;&lt;span style=&quot;color: #d4d4d4&quot;&gt;}&lt;/span&gt;&lt;/div&gt;&lt;/div&gt;" style="text;whiteSpace=wrap;html=1;spacingTop=-5;spacingRight=-5;" vertex="1" parent="47">
                    <mxGeometry y="20" width="227" height="150" as="geometry"/>
                </mxCell>
            </root>
        </mxGraphModel>
    </diagram>
</mxfile>